<svg width="284" height="300" fill="none" xmlns="http://www.w3.org/2000/svg"><path d="M.449 299.474h282.968l-38.185-43.65H213.64l-19.363-19.574v-60.677l-20.382-25.445h-31.591L.448.393v299.081Z" fill="#F8F200"/><path d="m126.386 149.933-7.058-8.42-9.665 7.317 7.058 8.421 9.665-7.318ZM261.429 282.741l-12.137-14.48-9.665 7.318 12.137 14.48 9.665-7.318ZM108.213 127.705l-1.618-1.93-9.665 7.318 1.617 1.929 9.666-7.317ZM172.282 159.18l-1.617-1.929-2.84 2.149 1.618 1.93 2.839-2.15ZM187.858 177.617l-10.26-12.241-2.839 2.15 10.26 12.24 2.839-2.149Z" fill="#000" stroke="#000" stroke-width="2"/><path d="m230.885 232.372-10.26-12.241-2.839 2.15 10.26 12.24 2.839-2.149ZM236.067 238.152l-2.344-2.797-2.84 2.149 2.345 2.798 2.839-2.15Z" fill="#F8F200"/><path d="m92.906 108.659-1.617-1.929-9.666 7.317 1.618 1.93 9.665-7.318Z" fill="#000" stroke="#000" stroke-width="2"/><path d="m38.275 66.771 20.68 3.903V59.583L71.218 72.57l-12.263-1.896v22.503l-20.68-26.406Z" fill="#000"/><path d="m58.955 70.674-20.68-3.903 20.68 26.406V70.674Zm0 0V59.583L71.218 72.57l-12.263-1.896Z" stroke="#000" stroke-width="2"/></svg>