<svg width="284" height="300" fill="none" xmlns="http://www.w3.org/2000/svg"><path d="M283.704 300.009H.735l38.186-43.65h31.592l19.362-19.573v-60.677l20.382-25.446h31.592L283.704.928v299.081Z" fill="#F8F200"/><path d="m161.479 150.468 7.058-8.42 9.666 7.318-7.058 8.42-9.666-7.318ZM26.434 283.276l12.137-14.479 9.666 7.317-12.138 14.48-9.665-7.318ZM179.651 128.24l1.618-1.929 9.665 7.317-1.618 1.93-9.665-7.318ZM115.582 159.716l1.617-1.93 2.839 2.149-1.617 1.93-2.839-2.149ZM100.009 178.152l10.261-12.24 2.838 2.149-10.26 12.241-2.839-2.15Z" fill="#000" stroke="#000" stroke-width="2"/><path d="m56.98 232.907 10.26-12.24 2.84 2.149-10.261 12.241-2.84-2.15ZM51.794 238.687l2.345-2.797 2.839 2.15-2.345 2.797-2.839-2.15Z" fill="#F8F200"/><path d="m194.96 109.195 1.617-1.93 9.666 7.318-1.618 1.929-9.665-7.317Z" fill="#000" stroke="#000" stroke-width="2"/><path d="m249.589 67.307-20.68 3.902V60.12l-12.262 12.986 12.262-1.896v22.503l20.68-26.405Z" fill="#000"/><path d="m228.909 71.21 20.68-3.903-20.68 26.405V71.21Zm0 0V60.117l-12.262 12.987 12.262-1.896Z" stroke="#000" stroke-width="2"/></svg>