<svg xmlns="http://www.w3.org/2000/svg" width="132" height="132" fill="none"><path stroke="#F8F200" stroke-width="4" d="m115.368 48.288-.073.823.53.634L129.395 66l-13.57 16.255-.53.635.073.822 1.888 21.474-19.979 4.754-.849.202-.429.759-10.442 18.464-18.737-8.429-.823-.37-.822.372-18.734 8.486L36 110.964l-.43-.759-.848-.202-19.98-4.755 1.89-21.536.072-.823-.53-.634L2.603 65.998l13.575-16.319.526-.633-.072-.82-1.888-21.532 19.974-4.696.852-.2.43-.762L46.444 2.572l18.737 8.43.82.368.82-.369 18.735-8.428 10.443 18.523.429.762.85.202 19.979 4.754-1.888 21.474Z"/><path fill="#F8F200" d="m54.12 89.9-5.833-5.834c-2.334-2.333-4.667-2.333-7 0l-5.41 5.41 2.334 2.333 5.41-5.409c.777-.778 1.548-.785 2.311-.021l.021.021-4.072 4.073c-1.952 1.952-1.973 3.882-.064 5.791 1.98 1.98 3.946 1.994 5.897.043l6.407-6.407Zm-9.927 4.073c-.382-.382-.375-.77.021-1.167l4.073-4.072 1.167 1.166-4.073 4.073c-.396.396-.792.396-1.188 0Zm21.7-15.846-3.33 3.33-7.17.17-1.166 1.167 3.5 3.5-2.334 2.333-9.333-9.333 2.333-2.334 3.5 3.5 1.167-1.166.19-7.192 3.31-3.309-.106 9.44 9.44-.106Zm-1.688-16.979 7 7-3.5 3.5c-.778.778-1.555.778-2.333 0l-5.834-5.833-2.333 2.333 5.833 5.834c2.334 2.333 4.667 2.333 7 0l4.668-4.667 2.333 2.334 2.44-2.44-4.667-4.667-1.273 1.273-7-7-2.334 2.333ZM87.121 56.9l-2.333 2.333-.997-.997c-.396 2.008-1.16 3.578-2.291 4.71-2.334 2.333-4.667 2.333-7 0L68.453 56.9l2.333-2.334 6.046 6.046c.764.764 1.541.764 2.333 0 1.358-1.754 1.782-3.663 1.273-5.728L75.454 49.9l2.333-2.333 9.334 9.334Zm-5.091-7.637c-1.98-1.98-1.994-3.946-.042-5.898l6.406-6.406 9.334 9.334-2.334 2.333-3.5-3.5-1.04 1.04.573 6.427-3.033 3.034-.573-6.428c-1.951 1.952-3.882 1.973-5.791.064Zm6.364-7.637L84.321 45.7c-.396.396-.382.806.043 1.23.353.354.728.333 1.124-.063l4.073-4.073-1.167-1.167Z"/></svg>